<?xml version="1.0" encoding="utf-8"?>
<!-- Generator: Adobe Illustrator 15.0.0, SVG Export Plug-In . SVG Version: 6.00 Build 0)  -->
<!DOCTYPE svg PUBLIC "-//W3C//DTD SVG 1.1//EN" "http://www.w3.org/Graphics/SVG/1.1/DTD/svg11.dtd">
<svg version="1.1" xmlns="http://www.w3.org/2000/svg" xmlns:xlink="http://www.w3.org/1999/xlink" x="0px" y="0px"
	 width="133.494px" height="128.993px" viewBox="0 0 133.494 128.993" enable-background="new 0 0 133.494 128.993"
	 xml:space="preserve">
<g id="Layer_1">
	<g>
		<g>
			<g>
				<path fill="#E2E41A" d="M1.71,0.664c0,0,0.514,42.631,10.916,56.006C25.037,72.627,67.5,64.814,67.5,64.814
					S84.042,19.463,54.222,6.113C35.396-2.805,1.71,0.664,1.71,0.664z"/>
				<path fill="#ED1C24" d="M133.494,0.664c0,0-0.514,42.631-10.916,56.006c-12.41,15.957-54.873,8.145-54.873,8.145
					S51.162,19.463,80.982,6.113C99.808-2.805,133.494,0.664,133.494,0.664z"/>
				<g>
					<path fill="#6993CD" d="M133.494,125.455c0,0-0.514-42.631-10.916-56.006c-12.41-15.957-54.873-8.145-54.873-8.145
						s-16.543,45.35,13.277,58.701C99.808,128.924,133.494,125.455,133.494,125.455z"/>
					<path fill="#F58220" d="M1.71,125.455c0,0,0.514-42.631,10.916-56.006C25.037,53.492,67.5,61.305,67.5,61.305
						s16.543,45.35-13.277,58.701C35.396,128.924,1.71,125.455,1.71,125.455z"/>
				</g>
			</g>
			<path fill="#E2E41A" d="M1.71,0.664c0,0,0.514,42.631,10.916,56.006C25.037,72.627,67.5,64.814,67.5,64.814"/>
		</g>
		<g>
			<defs>
				<circle id="SVGID_1_" cx="67.5" cy="63.06" r="35.819"/>
			</defs>
			<clipPath id="SVGID_2_">
				<use xlink:href="#SVGID_1_"  overflow="visible"/>
			</clipPath>
			<circle clip-path="url(#SVGID_2_)" cx="67.5" cy="63.06" r="35.819"/>
			<g clip-path="url(#SVGID_2_)">
				<path fill="none" stroke="#FFFFFF" stroke-width="4" d="M57.633,88.588c0,0-9.817-7.707-17.06-16.529
					c-7.245-8.824-11.216-17.135-11.216-17.135"/>
				<g>
					<path fill="none" stroke="#FFFFFF" stroke-width="4" d="M55.558,36.83c0,0,12.392-1.492,23.754-0.375
						c11.361,1.117,20.043,4.186,20.043,4.186"/>
					<path fill="none" stroke="#FFFFFF" stroke-width="4" d="M77.946,36.291c0,0,9.816,7.707,17.061,16.529
						c7.244,8.824,11.215,17.135,11.215,17.135"/>
					<path fill="none" stroke="#FFFFFF" stroke-width="4" d="M93.584,51.402c0,0,1.492,12.393,0.375,23.754
						c-1.116,11.361-4.185,20.045-4.185,20.045"/>
					<path fill="none" stroke="#FFFFFF" stroke-width="4" d="M94.486,72.158c0,0-7.708,9.816-16.531,17.061
						c-8.822,7.244-17.133,11.215-17.133,11.215"/>
					<path fill="none" stroke="#FFFFFF" stroke-width="4" d="M78.968,88.125c0,0-12.392,1.492-23.751,0.375
						c-11.362-1.115-20.047-4.184-20.047-4.184"/>
					<path fill="none" stroke="#FFFFFF" stroke-width="4" d="M41.699,73.553c0,0-1.492-12.393-0.376-23.754
						c1.117-11.361,4.185-20.047,4.185-20.047"/>
					<path fill="none" stroke="#FFFFFF" stroke-width="4" d="M41.354,51.898c0,0,7.708-9.816,16.53-17.061
						c8.824-7.244,17.134-11.217,17.134-11.217"/>
				</g>
			</g>
		</g>
	</g>
</g>
<g id="Layer_2">
</g>
</svg>
