<?xml version="1.0" encoding="utf-8"?>
<!-- Generator: Adobe Illustrator 14.0.0, SVG Export Plug-In . SVG Version: 6.00 Build 43363)  -->
<!DOCTYPE svg PUBLIC "-//W3C//DTD SVG 1.1//EN" "http://www.w3.org/Graphics/SVG/1.1/DTD/svg11.dtd">
<svg version="1.1" id="Layer_1" xmlns="http://www.w3.org/2000/svg" xmlns:xlink="http://www.w3.org/1999/xlink" x="0px" y="0px"
	 width="133.494px" height="128.993px" viewBox="0 0 133.494 128.993" enable-background="new 0 0 133.494 128.993"
	 xml:space="preserve">
<g id="Layer_1_1_">
	<g>
		<g>
			<g>
				<path fill="#E2E41A" d="M-36.145-290.867c0,0,0.516,44.618,10.934,58.616c12.431,16.701,54.964,8.523,54.964,8.523
					s16.569-47.465-13.299-61.438C-2.403-294.5-36.145-290.867-36.145-290.867z"/>
				<path fill="#ED1C24" d="M95.854-290.867c0,0-0.515,44.618-10.934,58.616c-12.431,16.701-54.963,8.524-54.963,8.524
					s-16.57-47.466,13.298-61.439C62.113-294.5,95.854-290.867,95.854-290.867z"/>
				<g>
					<path fill="#6993CD" d="M95.854-160.259c0,0-0.515-44.618-10.934-58.616c-12.431-16.701-54.963-8.527-54.963-8.527
						s-16.57,47.465,13.298,61.439C62.113-156.627,95.854-160.259,95.854-160.259z"/>
					<path fill="#F58220" d="M-36.145-160.259c0,0,0.516-44.618,10.934-58.616c12.431-16.701,54.964-8.524,54.964-8.524
						s16.57,47.463-13.299,61.438C-2.403-156.627-36.145-160.259-36.145-160.259z"/>
				</g>
			</g>
			<path fill="#E2E41A" d="M-36.145-290.867c0,0,0.516,44.618,10.934,58.616c12.431,16.701,54.964,8.523,54.964,8.523"/>
		</g>
		<g>
			<g>
				<defs>
					<ellipse id="SVGID_1_" cx="29.753" cy="-225.563" rx="35.878" ry="37.49"/>
				</defs>
				<clipPath id="SVGID_2_">
					<use xlink:href="#SVGID_1_"  overflow="visible"/>
				</clipPath>
				<ellipse clip-path="url(#SVGID_2_)" cx="29.753" cy="-225.563" rx="35.878" ry="37.49"/>
			</g>
			<g>
				<defs>
					<ellipse id="SVGID_3_" cx="29.753" cy="-225.563" rx="35.878" ry="37.49"/>
				</defs>
				<clipPath id="SVGID_4_">
					<use xlink:href="#SVGID_3_"  overflow="visible"/>
				</clipPath>
				<g clip-path="url(#SVGID_4_)">
					<path fill="none" stroke="#FFFFFF" stroke-width="4.0955" d="M19.87-198.843c0,0-9.833-8.068-17.088-17.301
						c-7.257-9.235-11.234-17.934-11.234-17.934"/>
					<g>
						<path fill="none" stroke="#FFFFFF" stroke-width="4.0955" d="M17.792-253.016c0,0,12.412-1.561,23.792-0.392
							c11.38,1.168,20.076,4.381,20.076,4.381"/>
						<path fill="none" stroke="#FFFFFF" stroke-width="4.0955" d="M40.216-253.581c0,0,9.833,8.067,17.088,17.301
							c7.256,9.235,11.233,17.934,11.233,17.934"/>
						<path fill="none" stroke="#FFFFFF" stroke-width="4.0955" d="M55.879-237.764c0,0,1.495,12.971,0.375,24.86
							c-1.118,11.892-4.191,20.981-4.191,20.981"/>
						<path fill="none" stroke="#FFFFFF" stroke-width="4.0955" d="M56.782-216.04c0,0-7.72,10.272-16.557,17.856
							c-8.837,7.58-17.161,11.737-17.161,11.737"/>
						<path fill="none" stroke="#FFFFFF" stroke-width="4.0955" d="M41.239-199.329c0,0-12.412,1.562-23.79,0.393
							c-11.38-1.167-20.08-4.38-20.08-4.38"/>
						<path fill="none" stroke="#FFFFFF" stroke-width="4.0955" d="M3.91-214.582c0,0-1.495-12.97-0.376-24.86
							c1.118-11.892,4.191-20.983,4.191-20.983"/>
						<path fill="none" stroke="#FFFFFF" stroke-width="4.0955" d="M3.563-237.245c0,0,7.722-10.275,16.557-17.856
							c8.839-7.583,17.163-11.739,17.163-11.739"/>
					</g>
				</g>
			</g>
		</g>
	</g>
</g>
<g id="Layer_2">
</g>
</svg>
