<?xml version="1.0" encoding="UTF-8" standalone="no"?>
<svg id="Layer_1" xmlns:rdf="http://www.w3.org/1999/02/22-rdf-syntax-ns#" xmlns="http://www.w3.org/2000/svg" enable-background="new 0 0 612 792" xml:space="preserve" viewBox="0 0 251 325.20607" height="100%" width="100%" version="1.1" y="0px" x="0px" xmlns:cc="http://creativecommons.org/ns#" xmlns:dc="http://purl.org/dc/elements/1.1/"><metadata id="metadata3173"><rdf:RDF><cc:Work rdf:about=""><dc:format>image/svg+xml</dc:format><dc:type rdf:resource="http://purl.org/dc/dcmitype/StillImage"/><dc:title/></cc:Work></rdf:RDF></metadata>
<g id="g3081" transform="translate(-181.4,-229.3)">
	<g id="g3083">
		<path id="path3085" fill="#a36621" d="m429.1,311.3c0.5-1,1.4-3,1.4-3.6s-1.2-9.4-1.2-10.4-0.1-5.6-0.1-6.4,0.6-0.8,0.1-1.8-7.2-3.2-9.1-4.2-5.6-3.2-6.9-3-8.6,1.3-8.6,1.3c-1,0.1-6.7-1.2-8-0.7s-7.8,0.4-8.8,0.4c-1.1,0-2.1-1.6-2.6-1.7s-2.4-1.7-2.5-2c-0.1-0.4-1.4-1.7-1.8-1.8s-7-1.4-8.2-1.8-4.2-4.2-4.7-7.2,1.1-7.6,3-7.8c0.7-0.7,6.2-3.9,6.2-4.4s-0.7-3.3-0.7-3.3,0.2-0.4,0-1.3c-0.3-1.1-0.7-1.5-1.3-2-0.9-0.7-6.1-5-6.7-5.3-0.6-0.4-5-5.9-5.8-6.8-1-0.6-13.8-1.3-16.7-1.8-2.2-0.4-8.1-3-9.3-3.7s-4.1-1.2-5-1.4c-0.6,0-15.3,0.7-17,1.1-1.5,0.4-5.9,0.5-6.3,0.5-0.8,0-11.7,0.8-13.5,0.7s-5.8,0.3-6.9,0.5c-0.7,0.1-4.5,0.7-7.1,1.5-1,0-7.8,2.7-8.4,2.9-0.6,0.1-6,1.8-7,2-1.1,0.2-4.5,1.7-5.5,1.7s-5.8,2-7,2.1-6.6,2.6-7.4,2.8c-1,0.3-5.2,1.9-6.4,2.2-0.7,0.2-1.2,0.8-3.7,1.3,0,0-1,2.8-1.1,3.5-0.1,0.9,0.5,2.5,1.5,3.3s2.5,4.4,3.1,5.6,2.2,6.4,2.2,8.2-2,7.1-3.1,7.9c-0.7,0.5-3.4,2.7-8.1,3.2-1.8,0.2-10.9-2.9-12.1-3.4s-7.7-3.1-10.3-4.1-3.8-1.5-5.9-0.2c-1.6,1-7.3,4.5-8.5,5.4-1.2,0.8-8,3-8.4,3.6s-0.3,2.5-0.3,3.7-2.1,11.3-2.1,12.5c0.2,0.4,0.8,1.6,1.4,2.6,1.1,1.8,2.6,4.3,3.5,5.1,2.3,2,0.7,8.2,0.7,9.4s-1.2,4.5-1.8,5.9-0.6,5.7,0.2,7.1,1.2,2.4,1.8,3.2,2,7.7,2,9.3-0.6,5.9-0.2,6.7,3.8,7.5,4.3,8.7c0.4,1.2,0,6.3,0,6.3s-0.2,3.2-0.4,5.7c-0.2,2.4-0.8,2.8-1,3.8s-1.4,2.4-1,3.2,1,3,2,3.8,4.7,10.3,5.7,12.6c1,2.2,5.1,15,5.5,16.8s1,7.1,1,7.1c0.1,0.4,0.7,1.5,1,2.6,0.5,1.8,1.2,4,1.4,4.9,11.5-1.7,46.8-19,55.3-20.5l27.2-9.5c1-0.2,3.1-2,3.9-2.5,3.9-3.3,7.8-5.4,12.3-6.4,5.6-0.3,10.7-0.7,16.4-0.7,4-2,5.3-5.1,9.6-6.6l3-1.3c1.7,1,2.9-0.3,4.8-1.1,0.5-0.5,1.9-2.2,2-2.6l3.8-2c3.8,2.9,6.8,7.4,10,11,0.8,2.1,3.4,2.3,5.1,3.8,1.6,1,3.5,1.2,4.9,2.8,1.6,0.7,3.8,0.9,4.8,2.4,0,0,8.9,5.6,12.9,9.1,2.5,1.2,4,3.6,6.4,4.6,2.9,1.6,5.2,3.1,8.4,4.9,3.7,2.2,7.8,4.5,8.7,5.1,2-2.8,4.6-6.1,4.9-6.5,0.5-0.6,1.1-2.3,1-2.7-0.1-0.5,0.4-4.5,0.4-5.5s0.5-1.8,0.6-2.3,1.6-3.3,1.8-4.1c0.2-0.7,0.8-3.2,0.6-3.9s-1.2-4.7-1.8-6.1-1.6-6-2-6.9c-0.5-1,5.4-7.8,6.3-9.1,1-1.3,3-3.6,3-4.2s-0.2-6.8-0.2-7.3,0-2.9,0.6-4.5c0.6-1.7,3.1-7.9,3-8.7s0-4.9-0.1-6.1,0.7-6,0.8-6.7,2.1-3.9,2.4-4.7c0.2-0.7-0.6-1.3-1-2.4s-1.6-4.9-1.8-5.5,0.1-1.6,0.4-2.1c-0.2,0,1.6-2.8,2.1-3.8z"/>
	</g>
	<g id="g3087">
		<path id="path3089" fill="#8c5719" d="m390.7,404.9c-2.4-1-3.9-3.4-6.4-4.6-4-3.5-12.9-9.1-12.9-9.1-1-1.5-3.2-1.7-4.8-2.4-1.4-1.6-3.3-1.8-4.9-2.8-1.7-1.5-4.3-1.7-5.1-3.8-3.2-3.6-6.2-8.1-10-11l-3.8,2c-0.1,0.4-1.5,2.1-2,2.6-1.9,0.8-3.1,2.1-4.8,1.1l-3,1.3c-4.2,1.6-5.6,4.6-9.6,6.6-5.7,0-10.9,0.4-16.4,0.7-4.5,1-8.3,3.1-12.3,6.4-0.7,0.5-2.9,2.3-3.9,2.5l-27.2,9.5c-8.5,1.5-43.8,18.7-55.3,20.5,0.1,0.2,0.1,0.4,0.1,0.5,0,0.6,0.2,6.2,0.4,7,0.1,0.6,1.3,3.4,2.8,5.7,0.6,0.8,1.4,1.6,1.6,1.9,0.7,1,1.3,9.7,3.8,12.5,0.7,0.8,9.9,13.2,11.1,14s5.9,9.1,6.5,9.7,2.8,2.8,3.4,3.6,3.8,7.3,4.1,9.1c0.1,0.6,0.3,3.1,0.6,3.8,0.9,1,4,3.2,6.5,3.9,0.8,0.2,2,2.5,3.2,4.1,0.3,0.4,0.6,0.6,0.9,1.1,0.6,1.3,0.8,2.8,0.8,2.8,0.4,0.7,3.3,6.5,3.8,7s6.7,7.2,7.3,8.1c0.6,1-0.2,1.3,0.5,2.4s2.1,4.7,2.7,5.3c0.8,0.8,1.3,4.3,1.3,4.3s0.7,1.1,1.6,1.1c0.8,0,5.2,4.4,6.2,5s0.1,1.7,0.1,1.7,1.4,2.8,2.6,3.8c1.1,0.9,3.7,2.2,4.1,2.4,0.5,0.2,5.5,2.4,6.9,3,1.2,0.5,7,3,11.4,3.9,3.3,0.7,11.4,2.2,13.1,1.4,1.8-0.8,3.2-1.4,5.2-2.7s1.7-1.4,3.5-3,3.1-2.9,3.4-3.6c0.4-0.7,1.7-2.2,2.2-2.6s1.1-0.8,1.4-1.4c0.2-0.5,1.5-2,1.7-2.4,0.6-1.1,4.9-5,5.2-5.5s2.3-4.7,2.5-6,1-2.6,1.3-3.3c0.4-0.7,2.9-2.6,4.1-3.2,1-0.5,2.9-2.2,2.9-3s0.8-4.3,1.5-4.6c0.7-0.4,7.4-5.2,7.9-5.7,0.3-0.3,4.9-4.4,5.6-5v-1.8c0-0.7,0.7-2.9,1.3-4.4,0.5-1.6,1.7-3.2,2.3-4,0.9-1.3,5.8-5.5,6.2-5.7s1.3-0.5,1.3-1-0.6-1.7-0.8-2.6c-0.2-0.7,1.8-4.8,2.3-5.6s2.2-2.1,3.1-2.7,1.4-1.9,1.3-2.4-0.5-1.7-0.5-2.7c0-0.8,0.1-2.9,0.3-3.7,0.2-0.7,0.4-1.5,0.8-2.7,0,0,0.7-2.1,1.2-3.4s5-7,5-7c0.8-1,1.4-2.4,1.4-2.7s1-3.5,1.2-4.1,7-7.9,8.5-9.3c1.4-1.4,1.2-2.5,1.2-2.9s0.5-4.6,1.4-6c1-1.5,2.6-5.9,3.6-7.9,0.3-0.7,1.3-2.2,2.5-3.8-0.8-0.5-4.9-2.9-8.7-5.1-3.1-1.9-5.4-3.5-8.3-5.1z"/>
	</g>
	<polygon id="polygon3091" points="277.5,397.6,278,398.8,280.5,397.9" fill="#FFF"/>
	<path id="path3093" fill="#FFF" d="m350.6,395.5c0.4,0.1,4.8,1.9,7.6,3.6,0.9,0.4,2.2,1.8,2.7,2.3,0.3,0.5-0.5,0.4,0,0.6,0.3,0.3,1.8,0.6,2.1,0.9,0.5,0.3,1.3,0.6,2,1.2,0.4,0.6,0.8,1.3,1.2,1.8,0.3,0.4,0.6,0.7,0.9,1,0.8,1,1.7,1.5,2.2,1.7,0.2,0.1,1.1,2.1,5.5,2.8,1.2,0.7,2.5,1.3,3.9,2,0.5,0.1,2.1-0.1,2.5,0-0.8-0.3,0.5,0.1,0.5,0.1s1.8,0.9,6.4,0.6c0.3,0,13.2,1.2,13.5,1.1,0.7,0,1.2-0.1,1.8-0.1s3-0.1,4.4-0.2c-0.5-0.3-10-5.9-10.5-6.1-2.4-1.4-4.3-2.6-6.7-3.9-2.4-1-3.9-3.4-6.4-4.6-4-3.5-12.9-9.1-12.9-9.1-1-1.5-3.2-1.7-4.8-2.4-1.4-1.6-3.3-1.8-4.9-2.8-1.7-1.5-4.3-1.7-5.1-3.8-3.2-3.6-6.2-8.1-10-11l-3.8,2c-0.1,0.4-1.5,2.1-2,2.6-1.9,0.8-3.1,2.1-4.8,1.1l-3,1.3c-4.2,1.6-5.6,4.6-9.6,6.6-5.7,0-10.9,0.4-16.4,0.7-4.5,1-8.3,3.1-12.3,6.4-0.7,0.5-2.9,2.3-3.9,2.5l-10.4,3.6-48.3,18-10.6,4.2-5.4,2-2.5,2-5,1.8v2.9l13.7-3.5,9.5-2.3c0.2-0.2,53.8-15.4,54.5-15.6,0.6-0.3,6.9-0.2,7.5-0.4,0.6-0.3,3.5-1.1,3.7-1.2,0.3-0.1,3.8-1,4.2-1s1.9-0.9,2.2-1.3,2.5-1.8,2.9-1.8l1.9,0.1c0.5,0.1,5.5,0.9,5.5,0.9l3.9,0.3,2.8-0.3s0.4-0.4,0.8-0.9c0.5-0.5,0.9-1,1-1,0.2,0,0.7-0.1,1,0,0,0-1.2,1.1-2.1,2.6-0.1,0.5-0.1,0.9-0.2,1.3-0.4,0.7-0.5,1.4-0.6,2-0.2,0.4-0.7,1.1-1,1.3-1,1.1-1,1.9-1,2.1,0.3,0,1,0.2,1.3,0.3,0.1-0.1,1.1-2,1.2-2.4,0.3-0.3,1-1,1.2-1.3,0.2-0.2,2.1-2.2,2.7-3.2,0.3-0.4,0.3-0.6,0.4-1,0.5-0.7,0.4-1.2,0.4-1.2s1.1-2.2,1.2-2.2,0.3-0.8,0.4-0.8c0.1-0.1,8.7-8.2,8.7-8.2l3.2,0.6s0.2,0.4,0.5,1.3c0.3,1,0.6,2.4,0.7,2.8,0,0.2,0.2,0.7,0.4,1.1,0.2,1,0.3,2.8,0.5,3.8,0.1,1.1,0.1,1.8,0.1,1.9,0.1,0,1.5,1.9,1.9,1.9,0,0.3-0.4,2,1.7,2.6,0.1,0.8,0.1,0.9,0.7,1.6,1.4,1,2.7,2.3,2.9,2.3,0.4,0.1,1.4-1,1.8-0.9,0.1,0-0.2-0.3-0.3-0.5s-1.8-0.7-2-1.1c-0.5-0.4-0.5-0.8-0.5-1.2-0.2-1.9-1.8-4-1.6-3.9,1.7-0.3,1.4-1,1.6-0.8,0.4,0.7,1.1,3.6,1.3,3.4s1.5,0.5,1.7,0.3c0.1-0.1-0.4-5.8-0.3-5.8"/>
	<path id="path3095" fill="#714506" d="m350.2,389.9c-1.1,0.3-2.9-1.4-3.6-2.4,2.8-3.4,3.7,2.5,3.6,2.4z"/>
	<path id="path3097" fill="#714506" d="m325.9,390.4c0,1.3-3.3,2.6-1.5,4-0.3,0-0.1,0.3-0.3,0.4-1,0.1-2-0.1-3.4,0.2,0-2.2,3.2-4.3,5.2-4.6z"/>
	<path id="path3099" fill="#714506" d="m314.4,391.2c-1.7,1.5-4.9,4.2-9.4,7.5-0.9,0.3-0.9-1.5-2.2-0.5l-0.5-0.4c3.4-2.9,10.7-6,12.1-6.6z"/>
	<path id="path3101" fill="#714506" d="m328.4,394c-0.9,0.8-1.8,2-3.1,1.6-0.2-1.3,1.5-2,2-2.6,0.2,0.5,0.4,0.9,1.1,1z"/>
	<path id="path3103" fill="#714506" d="m348.1,394.2-1.1,0.1s-0.5-0.3-0.1-0.6,0.9-0.2,1.1,0c0.3,0.1,0.1,0.5,0.1,0.5z"/>
	<path id="path3105" fill="#714506" d="m364.8,397.2,1,2.7-4.3-5.7c1.7,0.8,2.7,0.8,3.3,3z"/>
	<path id="path3107" fill="#714506" d="m362.5,395.7,1,2.7-4.3-5.7c1.6,0.8,2.7,0.8,3.3,3z"/>
	<path id="path3109" fill="#714506" d="m379.2,404.9-0.3,0.5-4.3-4.8c1.9,0.1,3.9,2.2,4.6,4.3z"/>
	<path id="path3111" fill="#714506" d="m317.8,395.9c-0.9,1.1-3.5,2.5-2.8,3.9-1.5-0.2-2.9,0.3-4.7,0,2.6-1,5.2-2.4,7.5-3.9z"/>
	<polygon id="polygon3113" points="309.5,398.3,312.3,396.7,313.2,396.8" fill="#714506"/>
	<path id="path3115" fill="#714506" d="m319.7,398.9c0.1,0.4-0.5,0.7-0.6,0.9h-0.7c0.3-0.2,0.9-0.9,1.3-0.9z"/>
	<path id="path3117" fill="#8c5719" d="m208.3,423.2c5.4-0.8,17.2-5.5,28.5-10.2s22.1-9.4,26.7-10.2l27.2-9.5h0.1c0.1,0,1-0.4,1.7-1,0.7-0.5,1.4-1,1.8-1.3,4-3.3,8-5.6,12.7-6.6h0.1,0.1c5.5-0.3,10.6-0.7,16.2-0.7,3.5-1.8,4.9-4.8,9.4-6.5l3.4-1.5,0.5,0.3c0.3,0.2,0.5,0.2,0.7,0.2,0.6,0.1,1.5-0.6,3-1.3,0.5-0.5,1.6-1.9,1.7-2.2l0.1-0.3,4.7-2.5,0.5,0.4c4,3.1,7,7.6,10.1,11.2l0.1,0.1,0.1,0.2c0.3,0.7,0.8,1.1,1.8,1.6,0.9,0.5,2,0.9,3.1,1.8,1.3,0.8,3.2,1.1,4.9,2.8,1.3,0.6,3.5,0.7,4.9,2.5,1.2,0.8,8.9,5.7,12.8,9,2.7,1.4,4.2,3.7,6.2,4.5h0.1,0.1c2.9,1.7,5.2,3.2,8.5,5,3.9,2.3,8.1,4.7,8.7,5.1l-1.1,1.7c-0.5-0.3-4.7-2.7-8.6-5-3.3-1.8-5.6-3.3-8.4-4.9-2.7-1.2-4.2-3.6-6.4-4.6l-0.1-0.1-0.1-0.1c-1.9-1.7-5.1-4-7.9-5.8-2.7-1.8-4.9-3.2-4.9-3.2l-0.2-0.1-0.1-0.2c-0.6-1-2.5-1.3-4.4-2l-0.2-0.1-0.1-0.2c-1.1-1.3-2.8-1.5-4.7-2.6h-0.1l-0.1-0.1c-0.7-0.6-1.7-1-2.7-1.6-1-0.5-2.1-1.2-2.6-2.5-3.1-3.5-5.9-7.7-9.2-10.4l-2.9,1.5c-0.2,0.4-0.5,0.7-0.8,1.1-0.5,0.6-0.9,1.1-1.2,1.4l-0.1,0.1-0.2,0.1c-1.3,0.5-2.3,1.5-4,1.6-0.4,0-0.8-0.1-1.3-0.3l-2.6,1.1c-3.8,1.4-5.1,4.3-9.5,6.6l-0.2,0.1h-0.2-0.2c-5.5,0-10.6,0.4-16.1,0.7-4.2,0.9-7.9,3-11.8,6.1-0.3,0.2-1.1,0.8-1.8,1.3-0.8,0.5-1.5,1-2.3,1.3l-27.2,9.5h-0.1c-4,0.7-15,5.4-26.3,10.1-11.4,4.7-23,9.5-29,10.4l-0.8-1.8z"/>
	<path id="path3119" fill="#2b4638" d="m269.2,364c-0.3,0.8-1.7,1.9-2.6,1.9l-0.5-0.7c1-0.5,2-1.1,3.1-1.2zm-26.6-15.6c-0.6-0.2-1.1,0.5-1.2,0.9-2,0-4.2,2-6-0.4,0.1-1.5,1.4-1.9,2.2-2.4s4.6-0.3,4.6-0.3l-0.3,0.7c0.4,0.5,0.9,0.8,0.7,1.5zm-12,33.3c-0.8-0.8-2.5-0.2-2.2-1.9,1.9-0.3,4.2-2.4,5.6-1.2-0.3,2.2-2.9,1.2-3.4,3.1zm25,20.7c0-0.2-0.1-0.4-0.3-0.5s-0.3,0.1-0.5,0.2c-0.6-1.6,0.5-5.4-0.9-7.4v-1c1.2,0.6,0.8-1.4,2.1-0.7,0.1,0.3-0.2,0.8,0.3,1,1.1,0-0.2-1.8,1.2-1.5,0.3,1.8,0.5,4.8-0.3,6.8,1.5-0.1,1.2,1.8,1,2.4-0.9,0.3,0,1.7-1.4,1.2l-0.5-1.2-0.7,0.7zm5.2-24.7c-2.5-0.5-5-0.8-7.2-2.2l-0.4-2.9c3.7,0.8,7.1,2.3,10.5,3.9v0.4c-0.7,0.2-2.2-0.3-2.9,0.8zm1,1.6v0.5c-3,1.2-5.3-0.9-7.7-1.9v-1.2c2.7,0.7,5.3,1.5,7.7,2.6zm-8.3-30.9c-0.3,1.2,0,3.7-1.9,3.1-1.1-2.7,0-4.9,0-7.9,1.4,0.9,2.3,2.8,1.9,4.8zm-0.1,35.7c2.3,0,3.9-0.9,6,0-1.8,1-4,2.1-6.2,2.7-1-0.7-1-2,0.2-2.7zm3.8,2.7c1.6-0.2,2.9-0.7,4.6-0.5,0,0.6-1.4,1.3-2.2,1.7-1,1.4-2.7,3.4-4.5,1.9-0.3-0.2-0.7-0.7-1-0.2v0.2c-0.6,0.3-0.8-0.5-1.2-0.7,0.7-1.5,2.9-1.6,4.3-2.4zm6.5,23.3c-1.1,1-2.4,1-3.6,2.4-1.1,0.4-2.1,0.6-3.1-0.3-0.2-1.1-0.4-1.4-0.7-2.6,1.8-1.5,6.1-2,8.3-2.6l1.2,0.9-2.3,1.8,0.2,0.4zm1.2-72c-1.1,1.1-1.5,3.6-3.3,3.3-1.1-1.7,1.8-2.3,2.1-4.1,0.3,0.5,1.2-0.1,1.2,0.8zm-2.6-10.4s1.3-0.4,1.5,0.2c0.2,0.5-0.9,2.6-0.9,2.6-2.1-0.3-1-1.9-0.6-2.8zm-0.3,6.3c0.3,0,0.6-0.1,0.8,0.2,0.2,0.7-0.5,0.7-0.8,1,0.2,0.4,0.7,0.2,1,0.2-0.7,0.6-0.2,3.9-3.3,2.5,0.2-1.2,0.6-2.3,2.3-3.9zm-2.8,18c0.6-0.6,1.9-2.1,2.8-0.9,0,0.4,0.5,0.6,0.8,0.9-0.9,1.2-2.3,0.8-3.4,1.2-0.5-0.3-0.5-0.8-0.2-1.2zm-1,3.6c-0.5,0.5-0.5,1.6-1.4,1.4l-0.5-0.5c0.2-0.9,1.1-0.9,1.9-0.9zm2.9,11.5c0.6,0.9-1.4,1.3,0,1.9-1.7,0.7-5,0.7-7,0-1.1-1.2,1.1-1.7,0.7-2.9,2.4-0.3,4.3,0.5,6.3,1zm-5.9-56.9s-0.2,0.5-0.8,1c-0.4-0.9-0.2-2.9-0.2-2.9l1,1.9zm0.6,17.1c-0.3,3.8-0.2,6.8-1.9,10l-0.5-0.4c0.3-0.2,0.2-0.5,0.2-0.8l-1.2-0.7c-0.1-3.5,0.2-7.5,0.8-11,1.7-0.1,2.2,1.5,2.6,2.9zm-4.2-23.9c0.3,2.3,0.7,4.9-1.2,7,0.6-2.3-0.3-5.3,1.2-7zm-5,5v0.9c-0.7,0.5-1.9,0.3-2.1-0.7,0.1-1.1,1.6-5,2.6-2.4l0.7-0.7c-0.2,0.5,0.7,2.9-1.2,2.9zm1.4,6.1-0.7,0c-0.4-1.2,0.7-2.8,1.9-2.7,0.8,1.4-0.8,1.6-1.2,2.7zm-7.1,75.2c-2.7,0.1-0.1-2.3-1.9-3.2,1.7-1.3,4,0,6.2-0.4-1.3,1-1.7,4.1-4.3,3.6zm5.3-10.1c-0.7-1.4-2.7,0.9-2.6-1.2,1.5,0.1,2.7-1.3,4.3-0.5,0,0.9-1.4,1.1-1.7,1.7zm-4.3,29.7c0.8-1.7,1.2-4.3,3.1-5l0.7,1c-1.3,1.3-1.7,3.7-3.8,4zm67.3,66.8c-2.1-0.4-5.2,1-7.2-0.4,1.2-0.3,5.2-0.4,7.2-0.1v0.5zm-7.7-39.8zm-72-24.2zm152.5,34.1c-0.9-0.7-2.2-1.3-2.7-3-0.1-0.4-0.3-1.2,0.1-1.5-0.3-0.3-0.8-1-0.5-1.4-0.6-0.1-0.9-1.1-0.4-1.8-0.9,0.1-1.3-1.6-1.6-2.4-0.4,0.8-1.1,2.4-1.5,2.4,0.2,0.3,0.2,1.6-0.7,2,0.6,0.8,0,2.4-0.9,1.9-0.5,0.9-1.3,1.7-2.3,1.5-0.9,0.7-1.7,1.2-2.5,0.7-1.2-0.9-0.9-1.8-2.8-1.8-0.3-0.3,0.6-1.2,0.7-1.2-0.5-0.1-1.6-0.2-1.6-0.2s-0.5-0.3-0.2-0.9c-0.6-0.1-0.9-1.1-0.4-1.6-0.6-0.3-1-1.2-0.5-1.6-0.6-0.3-0.7-1.1-1.1-1.8-0.2,0.7-0.4,1.6-0.8,1.8,0.3,0.4,0.3,1.4-0.4,1.8,0.7,0.8,0.1,1.6-0.3,2.1-0.5,0-1,0.1-1.4-0.3,0,0,0.4,1.4-0.3,2.1,0.6,0.3,0.2,0.8-0.1,1.1-0.5,0-0.8-0.1-1.4-0.1-0.2-1.5-0.3-1.9,0.4-2.8-0.7,0-0.3-0.3-1-0.5-0.3-0.6-1-3.4-1-3.4-0.4,1-0.8,2.8-1.9,2.9,0.5,1.1,0.8,2.4-0.8,3.2,1.4,1.1,0.8,2.8,0.1,3.1-0.5,0.2-1,0.6-2,0.2-0.4-0.2-1.3-0.9-0.2-2.4-1.5-1.4-0.8-4.7-0.1-5.4-1.2,0.2-2.3-1.9-0.8-3-1.7-0.7-2.7-4.6-1.9-5.8-1.1-0.4-1.1-2.3-1.6-3.5-0.6,1.3-0.5,3.2-1.4,3.6,0.8,0.7-0.1,4.9-1.7,5.3,1.8,1.2-0.3,4.9-1.6,4.7,0.6,1.8,0.6,3-0.9,3.2,0,1.3-0.9,2-1.7,2,0.6,2.1-0.3,3.6-1.4,3.8,0.2,1,0.6,1.5-0.3,2.5-0.8,1.1-2.1,0.9-2.1,0.9s-0.5,1.1-1.2,1.2c0.4,0.9,1.3,1.2,1.3,1.2l-0.2,0.5s-0.8,0.2-1.3,0.7c-0.4,0.5-4.5,0.2-4.5,0.2s-7.1-0.6-8.5-0.5-5.6-0.6-6.9-1-4.8-0.1-5.9-0.4c-0.9-0.3-2.7-0.4-3.3-1.2,0-0.7,0.4-1.8,1-2.5-2.9-0.8-1.5-3.8-0.8-5.2-0.8,0.4-3.1-0.2-3.5-1.1-0.4-1.3-0.7-2.3-0.1-3.6-1.5,0.4-2.2-1.2-2.2-1.6s0.5-1.7,1.2-2.7c-1.6-0.2-2.3-2.9-1.6-4.4-1.2,0.5-1.7-0.8-1.3-1.9-0.7,0.1-0.5-1-0.1-2-1.8-0.3-2.3-4.7-2.3-4.7s-0.3,4.4-2,4.5c0.3,1.1,0.1,2.6-0.7,2.6,0.4,1.1,0.1,1.7,0.1,1.7s-0.4,0.7-1.4,0.1c0.1,0.6,0.1,1.9-1.2,2.2,0.8,0.4,2,1.4,1.5,2s-1.5,0.4-1.5,0.4,0.8,1.8,0.4,2.5-0.3,0.5-1.1,0.8c0.2,2-0.5,2.9-1.6,3.3,0.4,1.3-0.1,3.6-1,4.2,1.6,0.9,0.7,1.9,0.7,1.9s-1.5,0.8-2.4,1.2c-2.5,1-2.9-0.8-2.9-0.8s1-0.4,1.3-1.7c-1.3-0.5-2.3-1.4-1.5-2.6-1.2,0.1-2-2.4-1.1-3.5-0.5-0.3-0.8-1.1-0.7-2.4-1.2,0.1-2.5-2.1-1.2-4.5-0.4,0.2-1,0.3-1.5,0.3-0.9-0.9-1-4.3-1.6-6.4-0.6,1.9-0.4,4.1-1.2,5.4-0.4,0.5-0.9,0.7-1.4,0.4,0,0.8,0.6,1.3-0.6,1.7,0.5,1.2,1.4,3.9-0.5,3.9,0.6,1.1,0.4,3.6-1.5,3.6,1.3,1.5,1.1,3-0.3,2.7,0.4,1.3-0.7,3.6-1.2,4-0.5,0.5-1.8,0.2-1.8,0.2s-0.7-1.8,0.3-3.1c-1.3-0.1-1.9-1.3-1.6-2.6-0.9,0-1.7-1.5-1.4-3-1.2,0.5-0.8-2.6-1.4-4.5-0.6,2-1,5.3-2.2,4.8,0.4,1.4,0.3,2.8-1.5,3.4-0.1,1.7,0.3,2-2.1,3.9-0.4-0.1-1.4,0-1.6-0.6-0.5,0-1.2,0.7-1.6,0.3-0.1-1.2,0.3-6.1,0.3-7.2-0.7-2.2-0.3-14.6-0.3-15.6,0-0.9,0.5-0.8,0.9-0.9,0.5-0.2,6.8-0.2,6.8-0.2l9-1.3,0.8-0.9,3-0.2c-0.7-0.2-1.4-1.9-1.4-2.2s1.5-3.3,1.5-3.3,4.9-1.9,4.1-2.3c-0.8-0.3-0.7-1.1-0.3-1.7s1.7-0.2,1.7-0.2,3-2.1,3.3-2.5,2.3-1.5,2.9-2.1,0.8-1.4,1.1-1.9c0.2-0.3,0.8-2.1,0.9-2.5s-0.3-1.7-0.4-1.9,1.3-1.7,0.9-1.8c-0.3-0.1-1.8-0.3-1.8-0.3s-2.5,0.3-2.7,0.3,0.1-0.4,0.1-0.4,1.2-0.5,1.4-0.7c0.5-0.3,1.7-0.6,1.9-0.8s1.1-0.9,1.6-2c-0.2,0.1-3.5,0.6-5,0.5-1.5-0.2-0.7-0.6-0.7-0.6s2-0.3,3.2-0.8c1.4-0.9,1.7-1.5,1.9-1.7-1.1-0.1-2.2-0.3-3.5-0.6-3.8,0.2-4.5,0.2-8.1-2.2-0.2-0.5,0.4-0.8,0.5-1.2,0.9-0.1,1.6,0.3,2.4,0.3,0.1-1.3-0.2-2.6-1.2-3.2,0.4-1.4,2.5-0.3,2.2-2.1-0.3-1.2-1.1-1.6-2.2-1.7,0.6-1.8-1.5-1-2.1-1.9,0.2-2.3,1.6,0.3,2.8-0.5-2-3.5-7.1-2.8-10.3-5,0.1-0.6,0.1-0.8,0-1.2l-0.7-0.8c0-1.9-2.5-1-3.4-2.6-0.2-2.3,2.7,0.7,2.7-1.7l0.5,0.5c0.6-0.2,1-0.5,1.2-1.2,0.9-1.5,2.9-0.9,3.8-2.4-0.5,0.1-1.1-0.2-1.4,0.2,0.3-0.7-0.8-2.3,0.9-2.4,1-2.2,3.8-2.7,5.5-3.8,0.6-0.9,0.9-1.9,0.8-3.1,0.3-3.2-3.6-3.1-4.4-4.3-1.2-0.4-1.1-1.9-1.9-2.4-1.4-1.3-2.9,0.5-4.5-1l0.9-1c-0.3-0.7-0.4,0.1-0.9-0.7-0.7-0.5-1.7-3.7-0.6-4.9l-0.1-0.5-0.7-0.7c1.4-2,4.8-0.1,4.6-3.4,2-2.2-1-2.4,0.9-3.3,0-0.8-1-2.3-1.8-3.3-0.5-0.1-1,0.1-1.2-0.1-0.4-0.4-0.5-0.6-0.6-0.9l0.8-0.1c-0.2-2.1,1.1-1.9,1.1-1.9,0-0.4,0-1,0.2-1.2,1.1-1.8,1.4-3.2,2.1-4.8-0.4-0.6-0.5-1.1,0-1.9,0.1-0.3,0.5-1.6,0.5-2.1,0-0.3-0.6-0.2-0.9-0.3l-0.6,1.7h-0.5c0.6-2.2,1.2-5.1,0.2-7.2,0.1,0-0.2-0.2,0-0.2l0.4-1.5c-0.4,0-0.5-1.3-0.5-1.3-1.2,0-3.6,0.1-4.9,0.1-1.3,0.3-1,1.9-2.5,2.3-1-0.2-0.7,1.8-1.8,1.5-0.3,0.4-0.3,0.5-0.3,0.5,0.3,0.2,0.4,0.3,0.6,0.5,1,1-1.7,0.5-1.5,1.5-0.3,0.1-0.4,0-0.6,0.1-0.2-0.8-1.1-0.8-1.1-1.8,0.1-0.1,0.5-0.6,0.7-0.5,0-0.6-0.9-0.5-0.7-1.2-0.6-0.4-1.5-0.4-2.1-0.7,0-0.2-0.2-0.9-0.3-1.4-0.1-0.6,0-1.3,0-1.6-2.4-0.4-0.2-1.5-0.1-1.9,0.5-0.9,0.2-2.2-0.6-3.4,0.4-1-0.2-1.9-1.4-2.1-0.9-1.5,0-2,0.1-3.2h-0.7c-0.1-0.9,0-1.3,0.1-1.9,2.1-0.7-0.1-2.6,1.8-4-0.1-2.3-2.5-1.6-2.9-2.6-0.3-0.4-4.7-1.6-7.2,0.5-4.1,0-3,3.8-7.4,5.5,1.3,1.7,5.1,0.5,4.9,3.3-1.7,2.7-4.2-1-5.8-0.9-1.1,0.1-2,1.2-2.8,2.1,0,0.7,0.3,1.1,0.1,2.1-0.4,2.4-3,1.8-3.7,3.8,0.7,0.7,1.8,0.9,2.7,0.6,1.2,0.4,1.4,1.2,1.5,2.6,0.6-0.1,2,0.2,2.3-0.5,0.3,0.4-0.1,1.2,0.4,1.6-1.1,1.5-1.8,3.1-2.1,4.9,0.2,2.9,4,1.9,3.2,5.3,1.6,0.3,4.3,1.7,5.8-0.5,0.3,0.5,0.7,0.2,0.9,0.7,1.1,2.9,0.5,6.8-0.3,9.7-0.8,0-2.2,1.6-3,0.4l0.3-6.5c-0.3-0.7-0.2-2.5-1.7-1.9-2,0-3.6,0.7-3.6,2.9l0.5-0.5c0.2,0,0.3,0.1,0.4,0.3,0.1,1,0.1,2.7-0.9,3.6-0.5-0.5-0.2-1.3-0.3-2-0.7,0.8-0.6,2.5-0.9,3.6,1.9-0.9,1.6,2.3,3.3,1.7,0.9,1.2,0.4,2.2,0.8,3.1-0.3,0.1-0.4-0.1-0.5-0.2l-1.5,1.4c-1.3,1.5-2-0.9-3.5-0.4-0.9-2.5-0.9-5.7,0-8.4-1.4,0.3-3.8-1.3-6-0.3-0.5,0.7,0.1,1.6-1.3,1.3l-0.6,0.8c-3,3.1-0.9,4.1-0.9,4.1-1.3,1.3-3.4,2.3-4.2,4.3,1.3,0.2,2.3,0.1,2,1.7,4,1.9-2.2,4-0.2,6.2-0.5,0.5,0,1.4,0,1.4,4.5,0.5-0.6,3.5,0.3,5.9,3.4-0.1,4.2,0.9,7.3,1.1,2.6,0.3,5.9,0,8.9-0.2l0.6-0.5c1.3,0.4,2.7,2,4.4,2.1l-3.1,2.5c-1.3,0.6-2.9,0.2-3.8-0.9-1.9,0.3-4.1-0.6-5.8,0.9l1.1,1.1-1.8,0.9c-2.2,0-5.4,0.8-6.5,2.8-0.1-0.1-0.4-0.4-0.4-0.7-1.1,1.4-3.6,2.3-4.4,4.1,1.6-0.4,4.8,0.1,6.5,1.2-1.2,2.3-4.8,0.8-6.7,1.7-0.7,0.5-2.2,0.4-2.2,1.7h1.2c0.7-0.1,2.1,0.9,1.9,1.4-2.3-0.7-4.2,1.5-5.5,3.1,0.8,1.6,2.6,1.8,3.9,2.7-2.3,3.9,4.3,3,6.2,5.2-0.4,0.5,1,0.5,1,0.5,0.7,0.6,1.1,1.2,0.9,2.2l0.5-0.5c0.4-0.1,0.5,0.3,0.7,0.5-0.7,3.2-4.3,4.2-7.4,5,0,0.3-0.1,0.6,0.2,0.7-1.6,3.6-5.4,3-7.6,5.8-0.1,0.8-0.1,1.5,0.7,1.9-0.5,0.3-1.5,1-1.6,1.4,3,1.2,5.7,1,9.3,1,0.8-1.7,1.9-3.7,3.8-4.5,0.7,0.6,2.2-0.5,2.6,0.9-0.3,0.2-0.2,0.5-0.2,0.7,1.3-0.4,2.5,1,3.6-0.2,0-2.2,2.5-3.4,3.8-5,2.6-1.2,5-0.4,7,1.4,0.3,0.9,0.2,3.1,1.7,3.4-0.8,1-2,0.7-2.9,1.4l0.5,1c-5.1,2-9.6,0.7-14.9,0.7,1.1,2-2.7,2.7-2.6,5l4,0.5c1.4,0.5,1.7,1.8,2.2,2.6-0.1,0.8-0.6,1.3-1,2-0.7,0.2-1.6,0.9-2.1-0.3-0.4,0.2-1.6,0.8-2.7,1-1,2.2-4.7,0.8-6.7,1.2,0.3,0-0.4,1-0.9,0.7-2.2,1.7,1.1,1.3,1.2,2.9-0.3,0.4-1.3,0.1-1,0.9,1.6,0.5,3.8,1.1,5.3,0.5l-0.7-0.7c0.3-0.5,0.9-0.7,1.4-1,0.5,2,1.8,0.2,2.9,0,0.4,0,0.7,1,1.2,0.3l0.5,0.5c-1-0.1-1,1-2,0.9-1,1,3.2,2.5,3.7,3.5-0.8,2.3,2.8,1.8,6,3.9-0.3,0.4,2.3,1.4,5.5,2.4,0,1.3-0.1,1.3,0.8,2.1-0.3,0.4,0.5,10.8,0.1,12.4-0.8,0.8-1.2,1-2.8,1-1.2,0-3.2-1.5-2.1-2.8-1.4-0.3-1.7-2.5-1.2-3.3-0.6,0-1.8-0.8-1.9-3.4-0.1,0.4-0.6,3.5-1.4,3.7,0.5,0.7-0.2,3.1-1.8,3.5,1.4,2.2-1.6,4.4-3,5.6,1,2.3-2.5,1.7-1.6,3.3-1.6,0-2.2,1.6-4,1.5-2.2,0.1-4.4-0.2-5.7-0.8-0.4-0.1-1.1,0.2-1.5,0.1l6.5,8.5c0.4,0.5,0.7,0.9,1,1.3,0.6,0.9,1.3,1.7,1.9,2.4,0.7,0.9,1.3,1.5,1.5,1.7l0.1,0.1c0.5,0.5,0.8,1,1.1,1.4l0.1,0.1c0.3,0.4,0.6,0.9,0.9,1.4,0.2,0.4,0.5,0.8,0.8,1.2l0.1,0.1c0.4,0.7,0.9,1.4,1.3,2.1,0.2,0.3,0.3,0.6,0.5,0.9,0.2,0.4,0.5,0.7,0.7,1.1,0.1,0.2,0.2,0.3,0.3,0.4,0.3,0.5,0.6,0.9,0.7,1l0.5,0.5,1.7,1.7c0.3,0.4,0.7,0.7,0.9,1,0.2,0.2,0.6,0.7,0.9,1.3,0.7,1.3,1.8,3.5,2.6,5.4,0.1,0.3,0.2,0.5,0.3,0.7s0.1,0.3,0.2,0.5v0.1c0.1,0.2,0.2,0.5,0.2,0.7h-0.1c0.1,0.3,0.2,0.6,0.3,0.9,0.1,0.4,0.1,1.2,0.2,2.1,0,0.2,0,0.3,0.1,0.5,0.1,0.5,0.2,1,0.3,1.2,0.9,1,4,3.2,6.5,3.9,0.8,0.2,2,2.5,3.2,4.1,0.3,0.4,0.6,0.6,0.9,1.1,0.6,1.3,0.8,2.8,0.8,2.8,0.4,0.7,3.3,6.5,3.8,7s6.7,7.2,7.3,8.1c0.6,1-0.2,1.3,0.5,2.4s2.1,4.7,2.7,5.3c0.8,0.8,1.3,4.3,1.3,4.3s0.7,1.1,1.6,1.1,5.2,4.4,6.2,5,0.1,1.7,0.1,1.7,1.4,2.8,2.6,3.8c1.1,0.9,3.7,2.2,4.1,2.4,0.5,0.2,5.5,2.4,6.9,3,1.2,0.5,7,3,11.4,3.9,3.3,0.7,11.4,2.2,13.1,1.4,1.8-0.8,3.2-1.4,5.2-2.7s1.7-1.4,3.5-3,3.1-2.9,3.4-3.6c0.4-0.7,1.7-2.2,2.2-2.6s1.1-0.8,1.4-1.4c0.2-0.5,1.5-2,1.7-2.4,0.6-1.1,4.9-5,5.2-5.5s2.3-4.7,2.5-6,1-2.6,1.3-3.3c0.4-0.7,2.9-2.6,4.1-3.2,1-0.5,2.9-2.2,2.9-3s0.8-4.3,1.5-4.6c0.7-0.4,7.4-5.2,7.9-5.7,0.3-0.3,4.9-4.4,5.6-5v-1.8c0-0.7,0.7-2.9,1.3-4.4,0.5-1.6,1.7-3.2,2.3-4,0-0.1,0.1-0.1,0.2-0.2,1.1-1.2,2.7-2.7,4.2-3.9,0.4-0.3,0.9-0.8,1.3-1.1,0.1-0.1,0.3-0.2,0.4-0.3,0.1,0,0.1-0.1,0.1-0.1,0.3-0.1,0.4-0.2,0.7-0.3,0.1-0.1,0.2-0.1,0.3-0.2s0.2-0.2,0.2-0.4-0.1-0.5-0.2-0.8c-0.2-0.6-0.4-1.1-0.6-1.9,0.2-1,0.6-2,1-2.8s0.8-1.5,0.9-1.9c0.2-0.3,0.3-0.6,0.4-0.7,0.3-0.4,0.9-1,1.5-1.5,0.5-0.4,1.1-0.8,1.6-1.2,0.9-0.6,1.4-1.9,1.3-2.4v-0.1c0-0.1-0.1-0.2-0.1-0.3-0.1-0.4-0.2-0.9-0.3-1.4-0.2-1.4,0-2.8,0.1-4v-0.2c0-0.1,0.1-0.3,0.1-0.4,0.2-0.5,0.3-1,0.5-1.7,0.3-0.8,0.5-1.4,0.6-2-1-0.2-3-0.4-4.2-0.3l0.5,0.9c-3.9,2.2-13.1,0.8-12.9,0.7-7.6-0.9-6-0.9-12-1.7-0.5-0.1-8.6-1.4-10.2-2.6,4.7-1.2,5.9-2.5,7.9-3.2,1.3-0.1,3,0.4,4.5-0.4,2.3,0.2,4.5-1.4,6.5-0.5,3.5-0.9,7.5-2.2,11-1.7,2.9-1.3,6.6-0.2,9.8-0.3,0.2,1.3,2.6,0.8,3.7,1.2,0.6-0.7,1.5-1.8,2.2-2.9,0.1-0.2,0.2-0.4,0.3-0.8s0.3-1.2,0.4-1.5c0.2-0.7,0.3-1.2,0.5-1.6-0.8-2-7.4-1.2-8.1-1.2z"/>
	<g id="g3121">
		<path id="path3123" fill="#FFF" d="m386.7,453.1c-1.1-0.4-3.4,0.1-3.7-1.2-3.2,0.1-6.9-1-9.8,0.3-3.5-0.5-7.5,0.8-11,1.7-2-0.9-4.2,0.7-6.5,0.5-1.5,0.8-3.2,0.3-4.5,0.4-2,0.7-3.2,2-7.9,3.2,1.6,1.2,9.8,2.5,10.2,2.6,6,0.8,4.4,0.8,12,1.7-0.2,0.1,9,1.5,12.9-0.7l-0.5-0.9c1.2-0.1,3.1,0.1,4.2,0.3,0,0.1-0.1,0.2-0.1,0.3,0.2-0.7,0.6-1.9,0.9-2.7,0.4-0.9,2.4-3.6,3.8-5.5z"/>
	</g>
	<path id="path3125" d="m291.4,475.8s2.5-1.2,5.6-1.3c3.4-0.2,2.9,0.2,6.2,0.5,0.4,0,1.2,0.1,2,0.3,0.8,0.1,2.4,0.1,3.6,0.5,1.1,0.4,2.8,1.2,3.7,1.4s1.6,0.4,2.4,0.7,1.2,0.5,2,0.7c0.7,0.3,2.6,1,4.4,1.4s3,0.5,4.3,0.8,2.6,0.5,3.6,1.1c1.1,0.5,3.2,1.7,4.1,2.8s2.4,3.2,2.6,4.8,0.3,2.4-0.1,4.2-0.9,2.5-0.7,3.1,0.5,0.9,0.2,1.5-0.5,1-0.7,1.4-0.5,0.7-0.5,0.7-0.3,0.3-0.4,0.1c-0.1-0.3,0.1-0.7-0.1-1.1-0.2-0.3-0.6-0.9-0.5-1.2s0.1-0.8,0.5-1.4,0.5-1.1,0.5-1.1,0.5-0.5,0.6-1.3c0.1-0.7,0.4-2.3,0.3-2.8s-0.2-2-0.2-2l-0.2-0.7s-0.7-0.7-0.6,0,0.4,0.9,0.1,2.8-0.1,1.1-0.7,2.8c-0.7,1.6-1.3,2.3-1.5,3.2s0.1,1.4,0.6,3.1c0.5,1.8,0.6,2.3,0.9,2.7s0.3,0.9,0.5,0.9c0.3,0.1,0.7,0.1,0.4,1.1s-1.3,3.2-1.4,4.4c-0.1,1.1-0.1,1.9-0.1,2-0.1,0.1-0.3,0.1-0.4,0.3s0,0.2-0.1,0.6c0,0.5-0.1,1.8-0.1,1.8s0.1,0.5-0.4,0.5h-2.7c-0.4,0-0.6,0.1-0.5-0.4s0.2-1.6,0.5-1.8,1-0.8,1-0.8,0.1-1,0.3-1.5c0.1-0.5,0.1-1.1,0.2-1.4s0.5-1.7,0.5-2.1,0.3-1.5-0.7-2.8c-1.1-1.3-2-1.8-2.8-2.4-0.8-0.5-2-1.3-3-1.3-0.7-0.1-1.6,0.3-2.2,0.5-0.5,0.3-1.7,0.8-2.6,1.3-1.1,0.6-2.2,1.1-2.5,1.3-0.4,0.2-0.8,0.1-0.8-0.4-0.1-0.5,0-0.9-0.5-0.9-0.5,0.1-0.7,0.1-1.3,0.3-0.5,0.2-1.1,0.7-1.4,1.5s-0.4,1.4-0.7,2.3c-0.2,0.5-0.5,0.9-0.7,1.4-0.2,0.6-0.4,0.6-1.4,1.5-0.8,0.8-1.2,0.9-1.7,1.9-0.5,0.9-0.5,1-0.6,1.3s-0.4,0.3-0.4,0.5c0,0.3-0.1,1.3-0.1,1.3s0,0.5-0.2,0.5h-3c-0.5,0-0.4-0.1-0.3-0.5,0.3-0.9,0.8-1.2,0.9-1.4s0-0.3-0.3-1.2c-0.1-0.3-1-2.8-1.1-3.1s-0.1-1-0.5-1.3-1.1-1.1-1.3-1.4c-0.1-0.3-1.2-0.9-1.7-0.9s-3.3-0.5-4-0.9-2.8-1.5-3.1-1.7-1.6-0.9-2-0.9c-0.3,0-0.8-0.2-1.3,0.3-0.8,0.8-1.1,0.7-1.5,1.1-0.4,0.3-0.3,0.4-0.6,0.8s-0.8,1.5-1,1.9c-0.8,1.7-1.5,1.4-1.5,1.4s-0.8,0.3-1.9-1.4c-1.1-1.8-1.5-2.4-1.5-2.4s-0.7-0.5-1.1-0.4c-0.5,0.1-1.6,0.3-2,0.2-0.3-0.1-0.9,0.1-1.2-0.5-0.4-0.6-0.9-1.4-0.7-2.6,0.1-1.2-0.5-2-0.5-2.4-0.1-0.3-0.5-0.8-0.8-1.6s-0.2-1.9-0.8-3.1c-0.7-1-0.9-3.2-0.9-3.2s-0.1-0.4,0.1-1.3c0.1-0.9,0-1.7,0.2-2.9,0.3-1.1,0.5-1.9,1.5-2.6,0.7-0.5,1.2-1.4,2-1.8,0.8-0.3,1.7-1.1,2.4-1.1s0.9-0.5,2.2-0.2,2.4,0.5,3.2,0.4c0.9-0.1,1.8-0.1,2.6-1.2s1.5-2.1,1.8-2.3c0.1,0.1,1.6-0.9,1.6-0.9zm-9.3,11.6l2,2c1.5-1.4,1.4-2.5,1.4-2.5s0.1-1.7-1.2-3.1c-1.4-1.3-1.5-0.7-1.4,0.2s0.4,1.1,0.1,1.9c-0.4,0.7-0.9,1.5-0.9,1.5zm-2.8,4c-0.1,0.2-0.2,0.3-0.3,0.4-0.2,0.1-0.5,0.5,0,0.6s0.7,0,1,0c0.5-0.1,0.8-0.1,1-0.2,0.3-0.1,0.5-0.5,0-0.6-0.6-0.2-0.7-0.5-1.2-0.5-0.4-0.2-0.4,0.1-0.5,0.3z" fill-rule="evenodd" clip-rule="evenodd" fill="#FFF"/>
	<g id="g3127" fill="#FFF">
		<path id="path3129" d="m285.8,301.2h5.7l5.7,11.4-0.1-11.4h4.1v16.8h-5.5l-5.8-11.4,0.1,11.4h-4.1v-16.8z"/>
		<path id="path3131" d="m309.6,301.2h5.5l6.4,16.7h-4.9l-1.2-3.6h-6.3l-1.3,3.6h-4.5l6.3-16.7zm2.7,3.5-2.2,6.5h4.2l-2-6.5z"/>
		<path id="path3133" d="m325.8,304.6h-4.1v-3.3h12.7v3.3h-4.1v13.4h-4.5v-13.4z"/>
		<path id="path3135" d="m336.9,301.2h4.5v16.8h-4.5v-16.8z"/>
		<path id="path3137" d="m352.6,301c5.5,0,8.4,3.3,8.4,8.6s-2.9,8.6-8.4,8.6-8.4-3.3-8.4-8.6c0.1-5.4,2.9-8.6,8.4-8.6zm0,13.9c2.7,0,3.8-2.6,3.8-5.3,0-2.9-1.1-5.3-3.8-5.3s-3.8,2.4-3.8,5.3c0.1,2.8,1.1,5.3,3.8,5.3z"/>
		<path id="path3139" d="m363.8,301.2h5.7l5.7,11.4-0.1-11.4h4.1v16.8h-5.5l-5.8-11.4,0.1,11.4h-4.1v-16.8z"/>
		<path id="path3141" d="m387.6,301.2h5.5l6.4,16.7h-4.9l-1.2-3.6h-6.3l-1.3,3.6h-4.5l6.3-16.7zm2.7,3.5-2.2,6.5h4.2l-2-6.5z"/>
		<path id="path3143" d="m401.5,301.2h4.5v13.4h6.9v3.3h-11.4v-16.7z"/>
		<path id="path3145" d="m316.9,325.2h5.3c5.1,0,7.5,1.7,7.5,5.5,0,3.4-2.5,5.4-6.6,5.4h-1.7v5.8h-4.5v-16.7zm4.5,7.7h1.2c1.5,0,2.8-0.6,2.8-2.3s-1.2-2.3-2.8-2.3h-1.2v4.6z"/>
		<path id="path3147" d="m335.8,325.2h5.5l6.4,16.7h-4.9l-1.2-3.6h-6.3l-1.3,3.6h-4.5l6.3-16.7zm2.7,3.4-2.2,6.5h4.2l-2-6.5z"/>
		<path id="path3149" d="m349.6,325.2h8c3,0,5.4,1.3,5.4,4.2,0,2.2-1.1,3.7-3.2,4.2,1.4,0.4,1.5,1.7,2.4,3.7l1.6,4.6h-4.6l-1-3c-0.9-2.9-1.5-3.6-3.1-3.6h-1.1v6.6h-4.5v-16.7zm4.4,6.9h1.2c1.4,0,3.3,0,3.3-1.9,0-1.6-1.6-1.8-3.3-1.8h-1.2v3.7z"/>
		<path id="path3151" d="m366.1,325.2h4.5v6.8l5-6.8h5.4l-6.2,7.8,6.7,8.9h-5.7l-5.2-7.6v7.6h-4.5v-16.7z"/>
		<path id="path3153" d="m299,361.7c1.1,0.6,2.8,1.1,4.6,1.1,1.4,0,2.8-0.3,2.8-1.6,0-3.1-7.9-1.1-7.9-7.2,0-4,3.9-5.1,7.3-5.1,1.6,0,3.2,0.2,4.3,0.6l-0.3,3.4c-1.2-0.5-2.4-0.8-3.7-0.8-1.1,0-3,0.1-3,1.6,0,2.7,7.9,0.9,7.9,6.9,0,4.3-3.6,5.5-7.4,5.5-1.6,0-3.5-0.2-5-0.7l0.4-3.7z"/>
		<path id="path3155" d="m313.7,349.2h11.8v3.2h-7.3v3.4h6.9v3.2h-6.9v3.8h7.6v3.2h-12v-16.8z"/>
		<path id="path3157" d="m328.6,349.2h8c3,0,5.4,1.3,5.4,4.2,0,2.2-1.1,3.7-3.2,4.2,1.4,0.4,1.5,1.7,2.4,3.7l1.6,4.6h-4.8l-1-3c-0.9-2.9-1.5-3.6-3.1-3.6h-0.9v6.6h-4.5v-16.7zm4.4,6.9h1.2c1.4,0,3.3,0,3.3-1.9,0-1.6-1.6-1.8-3.3-1.8h-1.2v3.7z"/>
		<path id="path3159" d="m343.7,349.2h4.7l3.7,13.1,3.7-13.1h4.6l-5.7,16.7h-5.5l-5.5-16.7z"/>
		<path id="path3161" d="m362.8,349.2h4.5v16.7h-4.5v-16.7z"/>
		<path id="path3163" d="m384.7,365.5c-1.3,0.3-2.7,0.7-5,0.7-4.5,0-9.6-2.3-9.6-8.6,0-5.8,4.1-8.7,9.6-8.7,1.7,0,3.4,0.4,5,0.9l-0.4,3.6c-1.4-0.8-2.8-1.2-4.4-1.2-3.2,0-5.2,2.3-5.2,5.4,0,3.3,2.3,5.3,5.6,5.3,1.5,0,2.9-0.4,4.2-0.9l0.2,3.5z"/>
		<path id="path3165" d="m386.9,349.2h11.8v3.2h-7.3v3.4h6.9v3.2h-6.9v3.8h7.6v3.2h-12v-16.8z"/>
	</g>
	<path id="path3167" fill="#FFF" d="m302.4,553.5c-4.6-1-10.5-3.5-11.7-4-1.4-0.6-6.4-2.7-7-3-0.5-0.3-3-1.5-4.4-2.6-1.8-1.5-3-4.3-3.1-4.3l-0.4-0.8,0.4-0.5c-0.6-0.5-1.3-1.2-2.2-1.9-1.1-1-2.2-2-2.9-2.4-0.1-0.1-0.2-0.1-0.2-0.1-0.9-0.1-1.4-0.6-1.8-0.9-0.4-0.4-0.7-0.7-0.7-0.8l-0.2-0.3v-0.4s-0.1-0.7-0.3-1.6c-0.2-0.8-0.5-1.7-0.6-1.9-0.4-0.5-0.6-0.8-0.9-1.3-0.2-0.5-0.5-1.1-0.8-1.6-0.5-1.1-1-2.3-1.3-2.6-0.4-0.6-0.6-1.2-0.6-1.7,0-0.4,0-0.6,0.1-0.7,0-0.1-0.6-0.7-1.2-1.4-0.7-0.8-1.5-1.7-2.3-2.6-1.7-1.8-3.4-3.7-3.5-3.8-0.3-0.3-0.3-0.4-0.5-0.7-0.1-0.2-0.3-0.5-0.5-0.8-0.4-0.6-0.8-1.4-1.2-2.2-0.9-1.6-1.7-3.2-1.9-3.6l-0.1-0.2v-0.2s0-0.3-0.2-0.8c-0.1-0.5-0.3-1.1-0.5-1.6,0-0.1-0.2-0.2-0.7-0.8-0.6-0.8-1.2-1.6-1.7-2.3-0.4-0.6-0.8-1.1-1-1.3-2.9-0.9-5.9-3.1-7.1-4.3l-0.1-0.2-0.1-0.2c-0.4-0.8-0.4-1.5-0.5-2.4-0.1-0.8-0.2-1.6-0.2-1.8,0-0.4-0.5-1.7-1.1-3.1s-1.3-3-1.9-4c-0.4-0.7-0.7-1.3-0.7-1.3-0.4-0.6-2.7-2.9-3.3-3.5-0.4-0.4-0.5-0.7-0.9-1.3-0.3-0.5-0.8-1.2-1.2-2-0.9-1.5-2-3.3-2.9-4.7-0.6-0.9-1.1-1.6-1.2-1.7-0.6-0.4-1-0.9-1.7-1.8-0.7-0.8-1.6-1.9-2.5-3.1-1.9-2.4-3.9-5.1-5.4-7-1-1.3-1.7-2.2-1.8-2.3-1.2-1.4-1.9-3.4-2.4-5.4s-0.9-4.1-1.2-5.6c-0.1-0.8-0.3-1.5-0.4-1.7-0.2-0.2-1-1.1-1.5-1.9-1.7-2.5-2.7-5.3-3-6.1-0.1-0.5-0.1-0.9-0.2-1.6,0-0.7-0.1-1.5-0.1-2.3-0.1-1.5-0.1-3-0.1-3.4v-0.1c0-0.1,0-0.2-0.1-0.4-0.1-0.3-0.2-0.8-0.3-1.3-0.3-1-0.6-2.3-1-3.4-0.3-1-0.8-2-1-2.6l-0.1-0.2v-0.2s-0.1-1.3-0.3-2.9c-0.2-1.5-0.4-3.3-0.6-4.1-0.3-1.6-4.5-14.6-5.4-16.5-0.8-1.7-2.9-7.1-4.4-10.2-0.4-0.9-0.9-1.7-1-1.8-0.8-0.7-1.2-1.6-1.6-2.4s-0.6-1.6-0.7-1.8c-0.2-0.4-0.2-0.7-0.2-1,0-1,0.4-1.5,0.6-2.1,0.3-0.5,0.5-1,0.5-1.1,0.2-0.8,0.4-1.2,0.6-1.6s0.3-0.9,0.4-2c0.2-2.4,0.4-5.6,0.4-5.7,0,0,0.2-2.2,0.2-4,0-0.9-0.1-1.7-0.1-1.7-0.1-0.3-1.1-2.4-2-4.3-1-1.9-1.9-3.8-2.1-4.2-0.3-0.8-0.3-1.2-0.3-1.8,0-1.8,0.4-4.5,0.3-5.5,0-0.8-0.7-4.9-1.3-7.1-0.2-0.6-0.4-1.2-0.4-1.3-0.8-1-1.1-2-1.9-3.3-0.7-1.3-0.8-2.9-0.8-4.6,0-1.5,0.1-2.8,0.6-3.8,0.3-0.7,0.7-1.8,1.1-2.9s0.6-2.2,0.6-2.4c0-0.7,0.2-1.4,0.3-2.4s0.3-2.1,0.3-3.1c0-1.5-0.3-2.6-0.7-2.8-0.7-0.6-1.3-1.5-1.9-2.5s-1.3-2.1-1.8-3c-0.7-1.1-1.3-2.3-1.4-2.7l-0.1-0.3v-0.3-0.1c0-0.9,0.3-2.5,0.7-4.5s0.8-4.3,1.1-5.9c0.2-1.1,0.3-2,0.3-2v-1.6c0.1-1-0.1-1.8,0.5-2.9,0.4-0.5,0.5-0.5,0.8-0.7,0.2-0.1,0.4-0.2,0.7-0.3,0.5-0.2,1.1-0.5,1.8-0.7,1.3-0.5,2.9-1.1,4.1-1.6,0.8-0.3,1.4-0.6,1.5-0.7,1.3-0.8,6.9-4.4,8.5-5.4,1-0.6,2.1-1,3.1-1,1.4,0,2.6,0.5,4.1,1.1,2.7,1,9.2,3.6,10.4,4.1,0.5,0.2,2.9,1,5.4,1.8s5.3,1.5,5.9,1.5c4.3-0.5,6.5-2.3,7.4-2.9,0,0,0.1-0.1,0.1-0.2,0.1-0.1,0.2-0.4,0.4-0.7,0.3-0.6,0.6-1.3,0.9-2.1,0.6-1.5,1-3.3,1-3.8,0.1-1.2-1.6-6.7-2.1-7.6-0.3-0.7-0.9-1.8-1.4-3-0.5-1.1-1.3-2.2-1.3-2.2-1.4-1.2-2-2.8-2.1-4.3v-0.3c0.1-0.7,0.4-1.5,0.6-2.4,0.3-0.8,0.5-1.5,0.5-1.5l0.3-0.8,0.8-0.2c2.4-0.5,2.2-0.8,3.6-1.3,1-0.2,5.3-1.8,6.3-2.1,0.2-0.1,1.9-0.8,3.5-1.4,1.7-0.7,3.2-1.3,4.3-1.5,0.1,0,1.1-0.3,2.2-0.7s2.3-0.8,3.2-1.1c0.7-0.2,1.1-0.4,1.8-0.4h0.2c0.1,0,0.3-0.1,0.5-0.1,0.4-0.1,1-0.3,1.5-0.5,1.1-0.4,2.2-0.8,3-1,0.4-0.1,2.1-0.6,3.6-1,1.6-0.5,2.9-0.9,3.5-1l0.2-0.1c0.1,0,0.3-0.1,0.6-0.2,0.5-0.2,1.1-0.4,1.7-0.6,1.3-0.5,2.9-1.1,4.1-1.5,0.8-0.2,1.2-0.4,1.8-0.5,2.7-0.8,6.4-1.3,7.1-1.5,1.1-0.2,4.2-0.5,6.3-0.5h0.9,0.4c1.2,0,4.3-0.2,7.1-0.4,2.9-0.2,5.3-0.4,5.9-0.4,0.2,0,4.8-0.1,5.9-0.5,0.7-0.2,1.9-0.3,3.6-0.4,1.6-0.1,3.7-0.3,5.7-0.4,4-0.2,7.8-0.4,8.1-0.4h0.2,0.2c0.4,0.1,1.4,0.3,2.4,0.5,1,0.3,2.1,0.5,3,1.1s7.1,3.3,8.8,3.5c2.3,0.4,12.4,1,15.8,1.5,0.5,0.1,0.8,0.1,1.4,0.4l0.2,0.1,0.1,0.1c0.8,0.8,3.2,3.8,4.7,5.6,0.4,0.5,0.8,0.9,0.9,1,0.3,0.2,0.7,0.5,1.2,0.9,0.6,0.5,1.3,1.1,2.1,1.7,1.5,1.2,3.1,2.5,3.4,2.7l0.1,0.1,0.1,0.1c0.6,0.5,1.5,1.4,1.8,2.8,0.1,0.4,0.1,0.8,0.1,1.1v0.6c0.1,0.3,0.2,0.7,0.3,1.1,0.2,0.9,0.4,1.5,0.4,2.2s-0.3,0.9-0.4,1c-0.1,0.2-0.2,0.2-0.3,0.3-0.2,0.2-0.4,0.4-0.7,0.5-0.5,0.4-1.2,0.8-1.9,1.3-1.4,0.9-2.9,1.9-3.3,2.2h-0.1l-0.4,0.4h-0.5s-0.1,0.1-0.2,0.2c-0.2,0.2-0.5,0.7-0.7,1.2-0.5,1.1-0.8,2.5-0.8,3.7,0,0.3,0,0.6,0.1,0.9,0.2,1.1,0.8,2.5,1.6,3.7s1.8,2.2,2,2.3c0.8,0.2,4.8,1,6.8,1.5,0.7,0.2,1.1,0.2,1.4,0.3,0.7,0.3,0.8,0.5,1.2,0.8l1,1c0.2,0.2,0.3,0.3,0.4,0.6l0.1,0.1c0.1,0.1,0.3,0.3,0.6,0.5,0.4,0.3,0.9,0.7,1,0.7,0.5,0.2,0.7,0.4,0.9,0.5,0.2,0.2,0.4,0.3,0.6,0.5,0.3,0.3,0.6,0.5,0.7,0.6h2.4c1.2,0,2.5,0,3.7-0.1,1.1,0,2.2-0.2,2.2-0.2,0.5-0.2,0.9-0.2,1.4-0.2,1.2,0,2.7,0.2,4,0.4s2.6,0.4,2.9,0.4c0.7-0.1,7.3-1.1,8.5-1.3h0.5c1.4,0.1,2.5,0.7,3.9,1.3,1.3,0.7,2.6,1.4,3.5,1.8,0.7,0.3,2.5,1,4.2,1.7,1.8,0.7,3.5,1.4,4.6,2.1,0.3,0.2,0.6,0.4,1,1,0.2,0.4,0.3,0.8,0.3,1.3,0,0.4-0.1,0.8-0.2,1-0.1,0.1-0.1,0.2-0.1,0.2,0,0.8,0.1,5.4,0.1,6.4,0,0.1,0.2,1.7,0.4,3.4s0.5,3.7,0.6,5.1c0.1,1,0.2,1.5,0.2,1.9-0.1,0.9-0.3,1.4-0.7,2.2-0.3,0.7-0.7,1.5-0.9,2-0.3,0.6-0.9,1.5-1.4,2.4s-1.1,1.8-1.1,1.9c-0.2,0.4-0.3,0.9-0.3,1.1,0.3,0.9,1.4,4.5,1.8,5.5,0.1,0.2,0.2,0.5,0.5,0.9,0.2,0.4,0.6,0.8,0.6,1.7,0,0.3,0,0.5-0.1,0.7-0.3,0.7-0.7,1.4-1.2,2.4-0.5,0.9-1,1.9-1.1,2.1-0.1,0.8-0.8,4.9-0.8,6.1v0.1c0.1,0.7,0.1,1.9,0.1,3.1v0.3,2.5,0.2c0,0.7-0.2,1.2-0.5,2-0.2,0.8-0.6,1.7-0.9,2.6-0.7,1.8-1.4,3.8-1.7,4.5-0.5,1.3-0.5,3.6-0.5,4s0.2,6.6,0.2,7.3c-0.1,0.9-0.3,1.1-0.6,1.5-0.2,0.4-0.6,0.8-0.9,1.2-0.6,0.8-1.4,1.7-1.8,2.3-0.5,0.7-1.9,2.3-3.3,4.1-1.2,1.5-2.4,3.2-2.7,3.9,0.3,0.8,0.6,1.9,0.9,3.1,0.4,1.4,0.8,2.9,1,3.4,0.4,0.9,0.7,2.2,1.1,3.5,0.3,1.2,0.7,2.5,0.7,2.7,0.1,0.4,0.1,0.7,0.1,0.9,0,1.4-0.5,3.1-0.7,3.9-0.2,0.5-0.5,1.3-0.9,2.1s-0.8,1.7-0.8,1.9c-0.3,0.8-0.6,1.4-0.5,1.9,0,1.1-0.4,4.3-0.4,5.2v0.4c0,0.7-0.2,1.2-0.4,1.8s-0.5,1.2-0.9,1.7c-0.2,0.3-1.8,2.3-3.5,4.6-1.6,2.2-3.4,4.7-3.7,5.4-0.4,0.9-1.1,2.5-1.7,4.1-0.7,1.6-1.3,3-1.9,4-0.2,0.2-0.6,1.5-0.8,2.6s-0.4,2.3-0.4,2.6v0.4c0,0.8-0.3,2.2-1.6,3.5-1,1-4.9,5.1-7,7.5-0.6,0.6-1.1,1.2-1.2,1.4-0.2,0.6-1,3.2-1,3.5-0.1,0.7-0.3,1-0.5,1.7-0.3,0.6-0.7,1.3-1.2,1.9,0,0-2.5,3.2-4,5.3-0.5,0.7-0.8,1.3-0.8,1.3-0.5,1.3-1.1,3.3-1.1,3.3-0.4,1.2-0.5,1.9-0.8,2.7-0.1,0.2-0.3,2.1-0.3,2.8v0.2c0,0.7,0.4,1.8,0.5,2.5v0.4c0,0.7-0.2,1.3-0.5,1.8-0.3,0.6-0.8,1.1-1.4,1.6-0.4,0.3-1.1,0.8-1.6,1.2-0.6,0.4-1,1-1.1,1-0.3,0.5-1.9,3.8-2.1,4.7,0.1,0.3,0.2,0.7,0.4,1.1,0.2,0.5,0.4,0.9,0.4,1.7,0,0.6-0.3,1-0.5,1.3s-0.5,0.4-0.7,0.5c-0.4,0.2-0.7,0.3-0.8,0.4,0,0-0.1,0.1-0.2,0.2-0.2,0.1-0.4,0.3-0.6,0.5-0.5,0.4-1.2,1-1.9,1.6-1.3,1.2-2.9,2.7-3.1,3-0.6,0.9-1.7,2.4-2.1,3.6-0.5,1.3-1.1,3.2-1.2,3.9v0.1,1.8,0.7l-0.6,0.5c-0.6,0.5-5.3,4.7-5.5,4.9-0.3,0.3-0.5,0.4-1,0.8-0.5,0.3-1,0.8-1.7,1.3-1.3,1-2.8,2.1-3.9,2.8-0.6,0.4-1.1,0.7-1.4,1,0,0-0.1,0.1-0.1,0.2-0.1,0.3-0.3,0.7-0.4,1.2-0.3,0.9-0.5,2-0.4,2.1,0,0.8-0.3,1.2-0.6,1.6s-0.6,0.8-0.9,1.1c-0.7,0.7-1.5,1.3-2.1,1.6-0.8,0.4-3,2-3.4,2.6-0.4,0.7-1,2-1.2,2.9-0.3,1.4-1.4,3.8-2.1,5.4-0.3,0.5-0.4,0.8-0.7,1.2-0.2,0.3-0.4,0.4-0.7,0.8-0.3,0.3-0.7,0.7-1.1,1.1-0.8,0.8-1.8,1.8-2.5,2.5-0.5,0.5-0.8,0.9-0.8,1-0.2,0.4-0.5,0.7-0.8,1.1s-0.6,0.9-0.8,1.1v0.1c-0.6,1.2-1.4,1.7-1.9,2-0.2,0.1-1.7,1.8-1.8,2-0.6,1.2-1.9,2.5-3.8,4.1-0.8,0.7-1.1,1.1-1.6,1.5-0.5,0.5-1,0.9-2.1,1.6-2.1,1.4-3.7,2.1-5.5,2.8-0.8,0.3-1.4,0.3-2.2,0.3-3.8,1-9.6-0.1-12.3-0.6zm12.8-1.5c1.8-0.8,3.1-1.4,5.1-2.6,1-0.6,1.2-0.9,1.6-1.2,0.3-0.3,0.8-0.8,1.7-1.7,1.7-1.5,3-2.9,3.1-3.2,0.7-1.2,1.8-2.4,2.6-3.1,0.5-0.4,0.9-0.7,0.9-0.8,0.3-0.5,0.6-1,1-1.5,0.3-0.5,0.7-1,0.8-1.1,0.6-0.9,1.6-1.9,2.7-3.1,1.1-1.1,2.3-2.2,2.6-2.5,0,0,0-0.1,0.1-0.2s0.2-0.3,0.3-0.6c0.2-0.5,0.5-1,0.8-1.7,0.5-1.2,1.1-2.6,1.1-3,0.3-1.6,1.1-3.1,1.4-3.7,0.3-0.5,0.6-0.8,0.9-1.1,0.4-0.3,0.8-0.7,1.2-1,0.9-0.7,1.8-1.3,2.5-1.7,0.5-0.2,1.9-1.5,2.1-1.8,0.1-1.1,0.5-2.9,1.1-4.3,0.3-0.5,0.4-1,1.2-1.5h0.1c0.1,0,0.2-0.1,0.3-0.2,0.2-0.2,0.5-0.4,0.9-0.6,0.7-0.5,1.6-1.1,2.4-1.8,1.7-1.3,3.6-2.6,3.9-2.9,0.4-0.4,3.7-3.3,5.2-4.6v-1.1c0-0.8,0.2-1.4,0.5-2.3s0.6-1.8,0.8-2.6c0.6-1.9,1.9-3.6,2.5-4.5,0.5-0.7,1.4-1.5,2.5-2.5,1-1,2.2-2,3-2.6,0.6-0.5,0.8-0.7,1.1-0.9,0.2-0.1,0.3-0.2,0.4-0.2v-0.1c-0.2-0.5-0.4-1.1-0.6-1.7-0.1-0.2-0.1-0.4-0.1-0.5,0-0.7,0.2-1.1,0.4-1.6,0.2-0.6,0.4-1.2,0.7-1.8,0.5-1.2,1.1-2.3,1.4-2.9,0.5-0.8,1.1-1.3,1.8-1.9,0.7-0.5,1.3-1,1.8-1.3,0.3-0.2,0.6-0.8,0.7-1-0.1-0.5-0.4-1.6-0.5-2.7v-0.5c0-1.1,0.1-2.7,0.4-3.8,0.2-0.6,0.4-1.4,0.8-2.7,0,0,0.7-2.1,1.2-3.4,0.3-0.6,0.6-1.2,1.2-2,0.5-0.8,1.1-1.6,1.7-2.4,1.2-1.6,2.3-3.1,2.4-3.1,0.5-0.5,1-1.7,1.1-1.9,0-0.4,0.1-0.5,0.2-0.9s0.2-0.8,0.4-1.3c0.3-0.9,0.6-1.8,0.7-2.2,0.3-0.5,0.4-0.6,0.6-0.9s0.5-0.6,0.9-1c0.7-0.8,1.6-1.8,2.6-2.9,1.9-2.1,4-4.3,4.7-5,0.8-0.9,0.7-1.2,0.8-1.4v-0.4c0-0.5,0.1-1.5,0.4-2.9s0.6-2.8,1.3-3.9c0.4-0.6,1.1-2,1.7-3.5s1.3-3.1,1.8-4.2c0.6-1.3,2.3-3.6,4-5.9s3.3-4.3,3.5-4.6c0.1-0.1,0.6-1.3,0.6-1.6v-0.5c0-1.2,0.4-4.6,0.4-5.2,0-1.4,0.7-2.5,0.6-2.6,0.1-0.4,0.2-0.6,0.4-1s0.4-0.8,0.6-1.2c0.4-0.8,0.8-1.8,0.9-2,0.2-0.4,0.6-2.4,0.6-3-0.2-0.5-0.4-1.6-0.8-2.9-0.3-1.2-0.7-2.6-1-3.1-0.4-0.9-0.7-2.4-1.1-3.8s-0.8-2.9-0.8-2.9c-0.2-0.4-0.2-0.7-0.2-0.9,0-0.7,0.2-1,0.4-1.4s0.4-0.8,0.7-1.2c0.6-0.9,1.3-1.8,2-2.8,1.5-1.9,3.1-3.9,3.5-4.4,0.5-0.6,1.1-1.4,1.6-2.1,0.5-0.6,0.9-1.2,1-1.4,0-1.3-0.2-6.5-0.2-7s0-3,0.7-5c0.3-0.8,1-2.5,1.6-4.2s1.2-3.5,1.3-3.9c-0.1-0.7-0.1-1.7-0.1-2.8v-0.3-2.8-0.5c0-1.8,0.8-5.9,0.9-6.6,0.1-0.6,0.3-0.8,0.5-1.3,0.2-0.4,0.5-0.9,0.7-1.3,0.4-0.8,0.9-1.6,1.1-2l-0.1-0.1c-0.2-0.3-0.5-0.8-0.8-1.5-0.4-1.1-1.6-5-1.8-5.4s-0.2-0.8-0.2-1c0-1,0.4-1.7,0.5-2.2,0.2-0.6,0.7-1.3,1.3-2.3,0.5-0.9,1.1-1.9,1.3-2.3,0.4-0.7,1.2-2.5,1.3-2.9v-0.3c0-0.3-0.1-0.7-0.1-1.1-0.1-0.9-0.3-2.1-0.4-3.3-0.3-2.5-0.6-4.7-0.6-5.5,0-0.9-0.1-5.6-0.1-6.4,0-0.4,0.1-0.8,0.2-1.1-0.2-0.1-0.4-0.2-0.6-0.3-0.7-0.3-1.6-0.7-2.5-1.1-2-0.8-4.1-1.6-5.2-2.1-1-0.5-2.3-1.2-3.5-1.8-1.1-0.6-2.3-1-2.5-1-1.4,0.3-8.6,1.3-8.6,1.3h-0.1-0.3c-0.8,0-2-0.2-3.4-0.4-1.3-0.2-2.8-0.4-3.6-0.4h-0.4c-0.9,0.3-1.8,0.3-3.1,0.4-1.2,0.1-2.6,0.1-3.8,0.1h-2.5c-1.1,0-1.8-0.6-2.3-1-0.4-0.4-0.8-0.7-0.9-0.8-0.6-0.2-0.8-0.5-1.3-0.8s-0.9-0.7-1.3-1.1c-0.2-0.3-0.4-0.3-0.7-0.9l-0.1-0.1c-0.1-0.1-0.2-0.2-0.3-0.4l-0.6-0.6h-0.1c-0.2,0-0.5-0.1-0.8-0.2-0.7-0.1-1.6-0.3-2.5-0.5-1.9-0.4-3.8-0.8-4.6-1-0.8-0.3-1.2-0.7-1.8-1.2-0.5-0.5-1.1-1.2-1.6-1.9-1-1.5-2-3.3-2.3-5.2-0.1-0.5-0.1-0.9-0.1-1.4,0-1.7,0.4-3.5,1.1-4.9,0.6-1.3,1.3-2.5,2.8-3,0.3-0.2,0.6-0.4,0.9-0.7,0.5-0.4,1.2-0.8,1.8-1.2,1-0.6,2-1.3,2.6-1.7-0.1-0.3-0.1-0.6-0.2-1-0.2-0.8-0.4-1.5-0.4-1.5l-0.1-0.6,0.2-0.4c0-0.1,0-0.2-0.1-0.4-0.2-0.7-0.2-0.6-0.8-1.2-1.1-0.8-5.5-4.5-6.5-5.2h-0.1c-0.4-0.3-0.5-0.4-0.7-0.6s-0.4-0.5-0.7-0.8c-0.5-0.6-1.2-1.4-1.8-2.1-1.1-1.3-2.2-2.6-2.7-3.2-0.1,0-0.2,0-0.3-0.1-0.4-0.1-1-0.1-1.7-0.2-1.4-0.2-3.1-0.3-5-0.5-3.7-0.3-7.5-0.6-9.1-0.8-2.7-0.5-8.3-3-9.8-3.9-0.3-0.2-1.3-0.5-2.2-0.7-0.8-0.2-1.6-0.4-2.1-0.5-1.3,0.1-8.9,0.4-13.5,0.7-1.6,0.1-2.9,0.3-3,0.3-2,0.5-6.2,0.5-6.7,0.6-0.2,0-2.9,0.2-5.7,0.4s-5.9,0.4-7.3,0.4h-0.6-0.7c-1.8,0-5,0.3-5.8,0.5-0.7,0.1-4.5,0.7-6.9,1.4l-0.2,0.1h-0.1-0.1c-0.1,0-0.3,0.1-0.6,0.2-0.5,0.2-1.1,0.4-1.8,0.6-1.3,0.5-2.9,1.1-4,1.5-0.8,0.3-1.2,0.4-1.6,0.6-0.1,0-1.7,0.5-3.2,0.9-1.6,0.5-3.1,0.9-3.8,1.1-0.3,0.1-1.5,0.5-2.6,0.9-1.2,0.4-2.1,0.8-3.1,0.8h-0.2c-0.2,0-0.4,0.1-0.7,0.2-0.6,0.2-1.3,0.4-2,0.7-1.5,0.5-2.9,1.1-4,1.2-0.1,0-1.9,0.6-3.4,1.3-1.6,0.7-3.1,1.3-3.7,1.5-0.9,0.3-5.1,1.8-6.5,2.2l-0.2,0.1c-0.1,0.1-0.4,0.2-0.7,0.4-0.5,0.2-1.1,0.5-2,0.7-0.1,0.2-0.1,0.4-0.2,0.7-0.2,0.7-0.5,1.7-0.5,1.7-0.1,0.4,0.5,1.7,0.9,2,0.9,0.8,1.5,1.9,2.1,3.1s1.2,2.4,1.4,3c0.7,1.6,2.3,6.4,2.4,8.9-0.1,2-1.2,5.1-2.3,7.3-0.4,0.7-0.7,1.3-1.4,1.8s-3.7,2.9-8.8,3.5h-0.3c-1.6,0-4.1-0.8-6.8-1.6-2.6-0.8-5-1.6-5.6-1.9-1.2-0.5-7.7-3.1-10.3-4.1-1.5-0.6-2.4-0.9-3-0.9-0.4,0-0.8,0.1-1.6,0.5-1.6,0.9-7.3,4.5-8.4,5.3-0.7,0.5-1.8,0.9-3.1,1.4s-2.8,1-3.8,1.5c-0.4,0.2-0.8,0.3-1.1,0.5v0.1,1.1,1.6c0,0.6-0.2,1.3-0.3,2.5-0.2,1.1-0.5,2.5-0.7,3.9-0.4,2.3-0.9,4.9-1,5.8,0.3,0.5,0.7,1.4,1.1,2.1,0.6,0.9,1.2,2,1.8,2.9s1.2,1.7,1.4,1.9c1.5,1.4,1.7,3.3,1.7,5.1,0,1.3-0.2,2.5-0.3,3.5s-0.3,1.9-0.3,1.9c0,1-0.4,2.1-0.8,3.3s-0.9,2.4-1.2,3.1c-0.1,0.2-0.3,1.5-0.3,2.6,0,1.4,0.3,2.9,0.4,3.1,0.9,1.5,1.3,2.5,1.7,3.1,0.5,0.7,0.5,1.2,0.8,2.1,0.2,0.8,0.5,1.8,0.7,2.9,0.4,2.1,0.8,4.1,0.8,5.3,0,1.4-0.3,4.1-0.3,5.5v0.6c0.3,0.5,1.2,2.3,2.1,4.1,1,2,1.9,3.8,2.2,4.7,0.2,0.8,0.2,1.6,0.3,2.6,0,1.9-0.2,4.2-0.2,4.2s-0.2,3.2-0.4,5.7c-0.1,1.3-0.4,2.2-0.6,2.9-0.3,0.7-0.4,0.9-0.4,1.2-0.3,1.2-0.9,2.1-1,2.5,0.2,0.5,0.5,1.2,0.7,1.8,0.3,0.7,0.7,1.3,0.8,1.3,0.5,0.4,0.6,0.7,0.9,1.1,0.2,0.4,0.5,0.9,0.7,1.4,0.5,1.1,1.1,2.4,1.7,3.8,1.2,2.8,2.3,5.7,2.8,6.8,1.1,2.5,5.1,15,5.6,17.1,0.4,1.8,0.9,6.2,1,7.1,0.2,0.4,0.6,1.5,1,2.5,0.5,1.7,1.1,3.7,1.3,4.8,0.1,0.4,0.2,0.6,0.2,1.1,0,0.4,0.2,5.6,0.3,6.6v0.1c0,0.3,1.2,3.2,2.6,5.2,0.5,0.7,1.2,1.4,1.6,1.9,0.3,0.5,0.4,0.8,0.5,1.2s0.2,0.8,0.3,1.4c0.2,1,0.4,2.3,0.7,3.6,0.5,2.6,1.4,5.4,2.2,6.2,0.4,0.4,1.7,2.2,3.5,4.5,1.7,2.3,3.8,5,5.4,6.9,1,1.2,1.9,2.2,2,2.3,0.7,0.5,1.1,1.1,1.7,2s1.3,1.9,1.9,3c1.3,2.1,2.6,4.4,3.1,4.9,0.6,0.6,2.8,2.8,3.6,3.8,0.3,0.4,0.6,0.9,1,1.7s0.9,1.7,1.3,2.7c0.9,2,1.8,4,2,5.3,0.1,0.4,0.1,1.1,0.2,1.8,0.1,0.5,0.2,1.1,0.2,1.4,0.9,0.8,3.8,2.8,5.6,3.3,0.7,0.2,1,0.6,1.4,0.9,0.3,0.4,0.6,0.7,0.9,1.2,0.6,0.8,1.2,1.8,1.7,2.5,0.2,0.2,0.7,0.6,1.1,1.4,0.6,1.2,0.8,2.4,0.9,3,0.4,0.9,1.9,3.7,2.8,5.3,0.3,0.5,0.6,1,0.6,1.1,0.6,0.6,4,4.3,6,6.5,0.7,0.8,1.2,1.3,1.5,1.8s0.5,1.1,0.5,1.5-0.1,0.6-0.1,0.7l0.1,0.1c0.5,0.7,0.9,1.8,1.4,2.9,0.4,1,0.9,2,1.1,2.2,0.5,0.5,0.7,1,0.9,1.5s0.4,1.1,0.5,1.6c0.1,0.6,0.3,1.2,0.3,1.6,0.1,0.1,0.2,0.2,0.3,0.2,0.5,0,0.7,0.2,0.9,0.3s0.4,0.3,0.6,0.4c0.4,0.3,0.9,0.7,1.4,1.1,1,0.8,2.1,1.8,2.9,2.6,0.5,0.5,1,0.9,1,0.9,0.7,0.4,1.2,1.3,1.2,2,0,0.4-0.1,0.7-0.2,0.9,0.1,0.2,0.3,0.5,0.4,0.8,0.4,0.8,1.1,1.6,1.4,1.9,0.9,0.7,3.4,2,3.9,2.2,0.3,0.2,5.5,2.4,6.8,3,1.2,0.5,7,3,11.2,3.8,2.6,0.5,8.4,1.6,11.2,1.6-0.1-0.7,0.2-0.7,0.4-0.8zm-43.8-21.3zm149.7-167.3z"/>
</g>
</svg>
